<svg width="144" height="95" viewBox="0 0 144 95" fill="none" xmlns="http://www.w3.org/2000/svg">
<path d="M142.05 11.3503V48.635C142.05 50.4891 141.308 52.2672 139.988 53.5783C138.668 54.8893 136.877 55.6259 135.01 55.6259C133.143 55.6259 131.353 54.8893 130.032 53.5783C128.712 52.2672 127.971 50.4891 127.971 48.635V28.2449L83.6727 72.2409C83.0187 72.8926 82.2416 73.4097 81.3859 73.7626C80.5302 74.1154 79.6128 74.2971 78.6862 74.2971C77.7597 74.2971 76.8423 74.1154 75.9866 73.7626C75.1309 73.4097 74.3537 72.8926 73.6997 72.2409L55.2262 53.8781L17.9682 90.8658C16.6457 92.1791 14.852 92.9169 12.9817 92.9169C11.1114 92.9169 9.31767 92.1791 7.99517 90.8658C6.67266 89.5524 5.92969 87.7712 5.92969 85.9139C5.92969 84.0566 6.67266 82.2753 7.99517 80.962L50.2338 39.0167C50.8878 38.365 51.665 37.8478 52.5207 37.495C53.3764 37.1421 54.2938 36.9605 55.2203 36.9605C56.1468 36.9605 57.0643 37.1421 57.92 37.495C58.7757 37.8478 59.5528 38.365 60.2068 39.0167L78.6921 57.3736L117.997 18.3411H97.4648C95.5978 18.3411 93.8072 17.6046 92.4869 16.2936C91.1667 14.9825 90.425 13.2044 90.425 11.3503C90.425 9.49616 91.1667 7.718 92.4869 6.40696C93.8072 5.09591 95.5978 4.35938 97.4648 4.35938H135.01C136.877 4.35938 138.668 5.09591 139.988 6.40696C141.308 7.718 142.05 9.49616 142.05 11.3503Z" fill="#2C2D2C"/>
<path d="M138.05 7.35026V44.635C138.05 46.4891 137.308 48.2672 135.988 49.5783C134.668 50.8893 132.877 51.6259 131.01 51.6259C129.143 51.6259 127.353 50.8893 126.032 49.5783C124.712 48.2672 123.971 46.4891 123.971 44.635V24.2449L79.6727 68.2409C79.0187 68.8926 78.2416 69.4097 77.3859 69.7626C76.5302 70.1154 75.6128 70.2971 74.6862 70.2971C73.7597 70.2971 72.8423 70.1154 71.9866 69.7626C71.1309 69.4097 70.3537 68.8926 69.6997 68.2409L51.2262 49.8781L13.9682 86.8658C12.6457 88.1791 10.852 88.9169 8.98167 88.9169C7.11137 88.9169 5.31767 88.1791 3.99517 86.8658C2.67266 85.5524 1.92969 83.7712 1.92969 81.9139C1.92969 80.0566 2.67266 78.2753 3.99517 76.962L46.2338 35.0167C46.8878 34.365 47.665 33.8478 48.5207 33.495C49.3764 33.1421 50.2938 32.9605 51.2203 32.9605C52.1468 32.9605 53.0643 33.1421 53.92 33.495C54.7757 33.8478 55.5528 34.365 56.2068 35.0167L74.6921 53.3736L113.997 14.3411H93.4648C91.5978 14.3411 89.8072 13.6046 88.4869 12.2936C87.1667 10.9825 86.425 9.20436 86.425 7.35026C86.425 5.49616 87.1667 3.718 88.4869 2.40696C89.8072 1.09591 91.5978 0.359375 93.4648 0.359375H131.01C132.877 0.359375 134.668 1.09591 135.988 2.40696C137.308 3.718 138.05 5.49616 138.05 7.35026Z" fill="#2C2D2C" fill-opacity="0.2"/>
<path d="M138.05 7.35026V44.635C138.05 46.4891 137.308 48.2672 135.988 49.5783C134.668 50.8893 132.877 51.6259 131.01 51.6259C129.143 51.6259 127.353 50.8893 126.032 49.5783C124.712 48.2672 123.971 46.4891 123.971 44.635V24.2449L79.6727 68.2409C79.0187 68.8926 78.2416 69.4097 77.3859 69.7626C76.5302 70.1154 75.6128 70.2971 74.6862 70.2971C73.7597 70.2971 72.8423 70.1154 71.9866 69.7626C71.1309 69.4097 70.3537 68.8926 69.6997 68.2409L51.2262 49.8781L13.9682 86.8658C12.6457 88.1791 10.852 88.9169 8.98167 88.9169C7.11137 88.9169 5.31767 88.1791 3.99517 86.8658C2.67266 85.5524 1.92969 83.7712 1.92969 81.9139C1.92969 80.0566 2.67266 78.2753 3.99517 76.962L46.2338 35.0167C46.8878 34.365 47.665 33.8478 48.5207 33.495C49.3764 33.1421 50.2938 32.9605 51.2203 32.9605C52.1468 32.9605 53.0643 33.1421 53.92 33.495C54.7757 33.8478 55.5528 34.365 56.2068 35.0167L74.6921 53.3736L113.997 14.3411H93.4648C91.5978 14.3411 89.8072 13.6046 88.4869 12.2936C87.1667 10.9825 86.425 9.20436 86.425 7.35026C86.425 5.49616 87.1667 3.718 88.4869 2.40696C89.8072 1.09591 91.5978 0.359375 93.4648 0.359375H131.01C132.877 0.359375 134.668 1.09591 135.988 2.40696C137.308 3.718 138.05 5.49616 138.05 7.35026Z" fill="url(#paint0_linear_512_2)"/>
<defs>
<linearGradient id="paint0_linear_512_2" x1="138.05" y1="45.7181" x2="1.92969" y2="45.7181" gradientUnits="userSpaceOnUse">
<stop stop-color="#00D998"/>
<stop offset="1" stop-color="#53D03E"/>
</linearGradient>
</defs>
</svg>
