<svg width="25" height="26" viewBox="0 0 25 26" fill="none" xmlns="http://www.w3.org/2000/svg">
<g clip-path="url(#clip0_505_2938)">
<path d="M12.5 1.25586C5.8725 1.25586 0.5 6.62836 0.5 13.2559C0.5 19.8834 5.8725 25.2559 12.5 25.2559C19.1275 25.2559 24.5 19.8834 24.5 13.2559C24.5 6.62836 19.1275 1.25586 12.5 1.25586ZM9.5625 18.2296H7.1325V10.4096H9.5625V18.2296ZM8.3325 9.44961C7.565 9.44961 7.06875 8.90586 7.06875 8.23336C7.06875 7.54711 7.58 7.01961 8.36375 7.01961C9.1475 7.01961 9.6275 7.54711 9.6425 8.23336C9.6425 8.90586 9.1475 9.44961 8.3325 9.44961ZM18.4375 18.2296H16.0075V13.8959C16.0075 12.8871 15.655 12.2021 14.7763 12.2021C14.105 12.2021 13.7063 12.6659 13.53 13.1121C13.465 13.2709 13.4488 13.4959 13.4488 13.7196V18.2284H11.0175V12.9034C11.0175 11.9271 10.9862 11.1109 10.9537 10.4084H13.065L13.1763 11.4946H13.225C13.545 10.9846 14.3288 10.2321 15.64 10.2321C17.2388 10.2321 18.4375 11.3034 18.4375 13.6059V18.2296Z" fill="#2C2D2C"/>
</g>
<defs>
<clipPath id="clip0_505_2938">
<rect width="25" height="25" fill="white" transform="translate(0 0.755859)"/>
</clipPath>
</defs>
</svg>
