<svg width="177" height="39" viewBox="0 0 177 39" fill="none" xmlns="http://www.w3.org/2000/svg">
<path d="M31.8489 22.5469C31.8305 22.5662 31.8119 22.5854 31.793 22.6044L19.2994 35.1641C17.9403 36.5303 15.7368 36.5303 14.3778 35.1641L1.88415 22.6044C1.86532 22.5855 1.84676 22.5664 1.82845 22.5472C1.56977 23.6821 1.88013 24.9216 2.75955 25.8057L14.3779 37.4854C15.737 38.8517 17.9404 38.8517 19.2995 37.4854L30.9178 25.8057C31.7973 24.9215 32.1077 23.6819 31.8489 22.5469Z" fill="url(#paint0_linear_505_2795)"/>
<path fill-rule="evenodd" clip-rule="evenodd" d="M14.3874 1.02469C15.7464 -0.341561 17.9499 -0.341562 19.309 1.02468L32.6771 14.4634C34.0361 15.8297 34.0361 18.0448 32.6771 19.4111L19.309 32.8498C17.9499 34.2161 15.7464 34.2161 14.3874 32.8498L1.0193 19.4111C-0.339765 18.0448 -0.339766 15.8297 1.0193 14.4634L14.3874 1.02469ZM20.889 12.5448C20.889 14.799 19.0713 16.6264 16.8289 16.6264C14.5866 16.6264 12.7688 14.799 12.7688 12.5448C12.7688 10.2907 14.5866 8.46327 16.8289 8.46327C19.0713 8.46327 20.889 10.2907 20.889 12.5448ZM16.8289 17.501C13.3052 17.501 10.4487 19.0074 10.4487 20.8657C10.4487 22.724 13.3052 26.8304 16.8289 26.8304C20.3526 26.8304 23.2091 22.724 23.2091 20.8657C23.2091 19.0075 20.3526 17.501 16.8289 17.501Z" fill="url(#paint1_linear_505_2795)"/>
<path d="M17.1913 20.9316C17.3846 21.0438 17.3846 21.3244 17.1913 21.4366L14.3637 23.0777C14.1704 23.1899 13.9287 23.0496 13.9287 22.8252L13.9287 19.543C13.9287 19.3185 14.1704 19.1783 14.3637 19.2905L17.1913 20.9316Z" fill="#00D998"/>
<path d="M16.6527 21.4366C16.4594 21.3244 16.4594 21.0438 16.6527 20.9316L19.4803 19.2905C19.6736 19.1783 19.9153 19.3185 19.9153 19.543V22.8252C19.9153 23.0496 19.6736 23.1899 19.4803 23.0777L16.6527 21.4366Z" fill="#00D998"/>
<mask id="path-3-outside-1_505_2795" maskUnits="userSpaceOnUse" x="43.8438" y="10.2061" width="133" height="21" fill="black">
<rect fill="white" x="43.8438" y="10.2061" width="133" height="21"/>
<path d="M44.8438 25.9939V11.6168H53.737V13.034H46.569V18.0455H53.1209V19.4421H46.569V24.5768H53.737V25.9939H44.8438Z"/>
<path d="M55.3073 25.9939L58.8399 20.9003L55.3073 15.8067H57.1763L60.0312 20.0172L62.9066 15.8067H64.7551L61.2224 20.9003L64.7551 25.9939H62.9066L60.0312 21.7835L57.1763 25.9939H55.3073Z"/>
<path d="M66.5635 30.5125V15.8067H68.1244L68.2887 17.4909C68.6173 16.998 69.0829 16.553 69.6853 16.1559C70.3015 15.7588 71.082 15.5603 72.0268 15.5603C73.04 15.5603 73.9232 15.793 74.6763 16.2586C75.4293 16.7241 76.0113 17.3608 76.422 18.1687C76.8465 18.9765 77.0587 19.8939 77.0587 20.9209C77.0587 21.9478 76.8465 22.8652 76.422 23.6731C76.0113 24.4672 75.4225 25.0971 74.6557 25.5626C73.9026 26.0145 73.0195 26.2404 72.0062 26.2404C71.171 26.2404 70.4247 26.0692 69.7675 25.7269C69.124 25.3846 68.631 24.9054 68.2887 24.2892V30.5125H66.5635ZM71.8214 24.7411C72.506 24.7411 73.1085 24.5836 73.6288 24.2687C74.1491 23.9401 74.5599 23.4882 74.8611 22.9131C75.1623 22.338 75.313 21.6671 75.313 20.9003C75.313 20.1336 75.1623 19.4626 74.8611 18.8875C74.5599 18.3125 74.1491 17.8674 73.6288 17.5525C73.1085 17.2239 72.506 17.0596 71.8214 17.0596C71.1367 17.0596 70.5343 17.2239 70.014 17.5525C69.4936 17.8674 69.0829 18.3125 68.7816 18.8875C68.4804 19.4626 68.3298 20.1336 68.3298 20.9003C68.3298 21.6671 68.4804 22.338 68.7816 22.9131C69.0829 23.4882 69.4936 23.9401 70.014 24.2687C70.5343 24.5836 71.1367 24.7411 71.8214 24.7411Z"/>
<path d="M84.0405 26.2404C83.0683 26.2404 82.2057 26.0213 81.4526 25.5832C80.6995 25.1313 80.1039 24.5083 79.6657 23.7141C79.2413 22.92 79.029 21.982 79.029 20.9003C79.029 19.8323 79.2413 18.9012 79.6657 18.1071C80.0902 17.2992 80.679 16.6762 81.4321 16.238C82.1988 15.7862 83.082 15.5603 84.0816 15.5603C85.0674 15.5603 85.9163 15.7862 86.6284 16.238C87.3541 16.6762 87.9086 17.2581 88.292 17.9838C88.6754 18.7095 88.8671 19.49 88.8671 20.3253C88.8671 20.4759 88.8602 20.6265 88.8465 20.7771C88.8465 20.9277 88.8465 21.0989 88.8465 21.2906H80.7337C80.7748 22.071 80.9528 22.7214 81.2677 23.2418C81.5964 23.7484 82.0003 24.1318 82.4795 24.3919C82.9725 24.6521 83.4928 24.7822 84.0405 24.7822C84.7525 24.7822 85.3481 24.6178 85.8273 24.2892C86.3066 23.9606 86.6557 23.5156 86.8748 22.9542H88.5795C88.3057 23.899 87.7785 24.6863 86.9981 25.3162C86.2313 25.9323 85.2454 26.2404 84.0405 26.2404ZM84.0405 17.0185C83.2189 17.0185 82.4864 17.2718 81.8428 17.7784C81.213 18.2714 80.8501 18.9971 80.7543 19.9556H87.1624C87.1213 19.0382 86.8064 18.3193 86.2176 17.799C85.6288 17.2787 84.9031 17.0185 84.0405 17.0185Z"/>
<path d="M91.1538 25.9939V15.8067H92.7147L92.8585 17.7579C93.1734 17.087 93.6527 16.553 94.2962 16.1559C94.9397 15.7588 95.7339 15.5603 96.6787 15.5603V17.3677H96.2063C95.6038 17.3677 95.0493 17.4772 94.5427 17.6963C94.036 17.9017 93.6321 18.2577 93.3309 18.7643C93.0296 19.2709 92.879 19.9692 92.879 20.8593V25.9939H91.1538Z"/>
<path d="M102.641 25.9939C101.71 25.9939 100.977 25.768 100.443 25.3162C99.9091 24.8643 99.642 24.0496 99.642 22.8721V17.265H97.8757V15.8067H99.642L99.868 13.3626H101.367V15.8067H104.366V17.265H101.367V22.8721C101.367 23.5156 101.497 23.9538 101.758 24.1865C102.018 24.4056 102.476 24.5152 103.134 24.5152H104.202V25.9939H102.641Z"/>
<path d="M114.643 25.9939V13.034H110.35V11.6168H120.661V13.034H116.368V25.9939H114.643Z"/>
<path d="M124.529 26.2404C123.68 26.2404 122.975 26.0966 122.414 25.8091C121.852 25.5216 121.435 25.1382 121.161 24.6589C120.887 24.1797 120.75 23.6594 120.75 23.098C120.75 22.0574 121.147 21.2563 121.941 20.6949C122.735 20.1336 123.817 19.8529 125.186 19.8529H127.939V19.7296C127.939 18.8396 127.706 18.1687 127.24 17.7168C126.775 17.2513 126.152 17.0185 125.371 17.0185C124.7 17.0185 124.118 17.1897 123.626 17.532C123.146 17.8606 122.845 18.3467 122.722 18.9902H120.955C121.024 18.2508 121.27 17.6278 121.695 17.1212C122.133 16.6146 122.674 16.2312 123.317 15.971C123.961 15.6972 124.646 15.5603 125.371 15.5603C126.795 15.5603 127.863 15.9437 128.575 16.7104C129.301 17.4635 129.664 18.4699 129.664 19.7296V25.9939H128.123L128.021 24.166C127.733 24.7411 127.309 25.234 126.747 25.6448C126.2 26.0419 125.46 26.2404 124.529 26.2404ZM124.796 24.7822C125.453 24.7822 126.015 24.611 126.48 24.2687C126.96 23.9264 127.322 23.4814 127.569 22.9337C127.815 22.386 127.939 21.8109 127.939 21.2084V21.1879H125.33C124.317 21.1879 123.598 21.3659 123.174 21.7219C122.763 22.0642 122.557 22.4955 122.557 23.0158C122.557 23.5498 122.749 23.9811 123.133 24.3098C123.53 24.6247 124.084 24.7822 124.796 24.7822Z"/>
<path d="M132.252 25.9939V11.2061H133.977V25.9939H132.252Z"/>
<path d="M141.385 26.2404C140.413 26.2404 139.55 26.0213 138.797 25.5832C138.044 25.1313 137.449 24.5083 137.011 23.7141C136.586 22.92 136.374 21.982 136.374 20.9003C136.374 19.8323 136.586 18.9012 137.011 18.1071C137.435 17.2992 138.024 16.6762 138.777 16.238C139.544 15.7862 140.427 15.5603 141.426 15.5603C142.412 15.5603 143.261 15.7862 143.973 16.238C144.699 16.6762 145.253 17.2581 145.637 17.9838C146.02 18.7095 146.212 19.49 146.212 20.3253C146.212 20.4759 146.205 20.6265 146.191 20.7771C146.191 20.9277 146.191 21.0989 146.191 21.2906H138.079C138.12 22.071 138.298 22.7214 138.613 23.2418C138.941 23.7484 139.345 24.1318 139.824 24.3919C140.317 24.6521 140.838 24.7822 141.385 24.7822C142.097 24.7822 142.693 24.6178 143.172 24.2892C143.651 23.9606 144.001 23.5156 144.22 22.9542H145.924C145.65 23.899 145.123 24.6863 144.343 25.3162C143.576 25.9323 142.59 26.2404 141.385 26.2404ZM141.385 17.0185C140.564 17.0185 139.831 17.2718 139.188 17.7784C138.558 18.2714 138.195 18.9971 138.099 19.9556H144.507C144.466 19.0382 144.151 18.3193 143.562 17.799C142.974 17.2787 142.248 17.0185 141.385 17.0185Z"/>
<path d="M148.499 25.9939V15.8067H150.059L150.162 17.6347C150.491 16.9911 150.963 16.4845 151.579 16.1148C152.196 15.7451 152.894 15.5603 153.674 15.5603C154.879 15.5603 155.838 15.93 156.55 16.6694C157.275 17.3951 157.638 18.5178 157.638 20.0377V25.9939H155.913V20.2226C155.913 18.1002 155.037 17.0391 153.284 17.0391C152.408 17.0391 151.675 17.3608 151.086 18.0044C150.511 18.6342 150.224 19.5379 150.224 20.7155V25.9939H148.499Z"/>
<path d="M164.278 25.9939C163.347 25.9939 162.614 25.768 162.08 25.3162C161.546 24.8643 161.279 24.0496 161.279 22.8721V17.265H159.513V15.8067H161.279L161.505 13.3626H163.004V15.8067H166.003V17.265H163.004V22.8721C163.004 23.5156 163.134 23.9538 163.395 24.1865C163.655 24.4056 164.113 24.5152 164.771 24.5152H165.839V25.9939H164.278Z"/>
<path d="M172.097 26.2404C170.879 26.2404 169.865 25.9323 169.058 25.3162C168.25 24.7 167.777 23.8648 167.64 22.8104H169.407C169.516 23.3444 169.797 23.81 170.249 24.2071C170.714 24.5905 171.337 24.7822 172.118 24.7822C172.843 24.7822 173.377 24.6315 173.72 24.3303C174.062 24.0154 174.233 23.6457 174.233 23.2212C174.233 22.6051 174.007 22.1943 173.555 21.9889C173.117 21.7835 172.494 21.5987 171.686 21.4343C171.139 21.3248 170.591 21.1673 170.043 20.962C169.496 20.7566 169.037 20.469 168.667 20.0993C168.298 19.7159 168.113 19.2162 168.113 18.6C168.113 17.71 168.441 16.9843 169.099 16.4229C169.77 15.8478 170.673 15.5603 171.81 15.5603C172.891 15.5603 173.775 15.8341 174.459 16.3818C175.158 16.9158 175.561 17.6826 175.671 18.6822H173.966C173.898 18.1618 173.672 17.7579 173.288 17.4704C172.919 17.1691 172.419 17.0185 171.789 17.0185C171.173 17.0185 170.694 17.1486 170.351 17.4088C170.023 17.6689 169.859 18.0112 169.859 18.4357C169.859 18.8465 170.071 19.1682 170.495 19.401C170.933 19.6338 171.522 19.8323 172.262 19.9966C172.891 20.1336 173.487 20.3047 174.048 20.5101C174.624 20.7018 175.089 20.9962 175.445 21.3933C175.815 21.7767 176 22.338 176 23.0774C176.013 23.9948 175.664 24.7548 174.952 25.3572C174.254 25.946 173.302 26.2404 172.097 26.2404Z"/>
</mask>
<path d="M44.8438 25.9939V11.6168H53.737V13.034H46.569V18.0455H53.1209V19.4421H46.569V24.5768H53.737V25.9939H44.8438Z" fill="#2C2D2C"/>
<path d="M55.3073 25.9939L58.8399 20.9003L55.3073 15.8067H57.1763L60.0312 20.0172L62.9066 15.8067H64.7551L61.2224 20.9003L64.7551 25.9939H62.9066L60.0312 21.7835L57.1763 25.9939H55.3073Z" fill="#2C2D2C"/>
<path d="M66.5635 30.5125V15.8067H68.1244L68.2887 17.4909C68.6173 16.998 69.0829 16.553 69.6853 16.1559C70.3015 15.7588 71.082 15.5603 72.0268 15.5603C73.04 15.5603 73.9232 15.793 74.6763 16.2586C75.4293 16.7241 76.0113 17.3608 76.422 18.1687C76.8465 18.9765 77.0587 19.8939 77.0587 20.9209C77.0587 21.9478 76.8465 22.8652 76.422 23.6731C76.0113 24.4672 75.4225 25.0971 74.6557 25.5626C73.9026 26.0145 73.0195 26.2404 72.0062 26.2404C71.171 26.2404 70.4247 26.0692 69.7675 25.7269C69.124 25.3846 68.631 24.9054 68.2887 24.2892V30.5125H66.5635ZM71.8214 24.7411C72.506 24.7411 73.1085 24.5836 73.6288 24.2687C74.1491 23.9401 74.5599 23.4882 74.8611 22.9131C75.1623 22.338 75.313 21.6671 75.313 20.9003C75.313 20.1336 75.1623 19.4626 74.8611 18.8875C74.5599 18.3125 74.1491 17.8674 73.6288 17.5525C73.1085 17.2239 72.506 17.0596 71.8214 17.0596C71.1367 17.0596 70.5343 17.2239 70.014 17.5525C69.4936 17.8674 69.0829 18.3125 68.7816 18.8875C68.4804 19.4626 68.3298 20.1336 68.3298 20.9003C68.3298 21.6671 68.4804 22.338 68.7816 22.9131C69.0829 23.4882 69.4936 23.9401 70.014 24.2687C70.5343 24.5836 71.1367 24.7411 71.8214 24.7411Z" fill="#2C2D2C"/>
<path d="M84.0405 26.2404C83.0683 26.2404 82.2057 26.0213 81.4526 25.5832C80.6995 25.1313 80.1039 24.5083 79.6657 23.7141C79.2413 22.92 79.029 21.982 79.029 20.9003C79.029 19.8323 79.2413 18.9012 79.6657 18.1071C80.0902 17.2992 80.679 16.6762 81.4321 16.238C82.1988 15.7862 83.082 15.5603 84.0816 15.5603C85.0674 15.5603 85.9163 15.7862 86.6284 16.238C87.3541 16.6762 87.9086 17.2581 88.292 17.9838C88.6754 18.7095 88.8671 19.49 88.8671 20.3253C88.8671 20.4759 88.8602 20.6265 88.8465 20.7771C88.8465 20.9277 88.8465 21.0989 88.8465 21.2906H80.7337C80.7748 22.071 80.9528 22.7214 81.2677 23.2418C81.5964 23.7484 82.0003 24.1318 82.4795 24.3919C82.9725 24.6521 83.4928 24.7822 84.0405 24.7822C84.7525 24.7822 85.3481 24.6178 85.8273 24.2892C86.3066 23.9606 86.6557 23.5156 86.8748 22.9542H88.5795C88.3057 23.899 87.7785 24.6863 86.9981 25.3162C86.2313 25.9323 85.2454 26.2404 84.0405 26.2404ZM84.0405 17.0185C83.2189 17.0185 82.4864 17.2718 81.8428 17.7784C81.213 18.2714 80.8501 18.9971 80.7543 19.9556H87.1624C87.1213 19.0382 86.8064 18.3193 86.2176 17.799C85.6288 17.2787 84.9031 17.0185 84.0405 17.0185Z" fill="#2C2D2C"/>
<path d="M91.1538 25.9939V15.8067H92.7147L92.8585 17.7579C93.1734 17.087 93.6527 16.553 94.2962 16.1559C94.9397 15.7588 95.7339 15.5603 96.6787 15.5603V17.3677H96.2063C95.6038 17.3677 95.0493 17.4772 94.5427 17.6963C94.036 17.9017 93.6321 18.2577 93.3309 18.7643C93.0296 19.2709 92.879 19.9692 92.879 20.8593V25.9939H91.1538Z" fill="#2C2D2C"/>
<path d="M102.641 25.9939C101.71 25.9939 100.977 25.768 100.443 25.3162C99.9091 24.8643 99.642 24.0496 99.642 22.8721V17.265H97.8757V15.8067H99.642L99.868 13.3626H101.367V15.8067H104.366V17.265H101.367V22.8721C101.367 23.5156 101.497 23.9538 101.758 24.1865C102.018 24.4056 102.476 24.5152 103.134 24.5152H104.202V25.9939H102.641Z" fill="#2C2D2C"/>
<path d="M114.643 25.9939V13.034H110.35V11.6168H120.661V13.034H116.368V25.9939H114.643Z" fill="#2C2D2C"/>
<path d="M124.529 26.2404C123.68 26.2404 122.975 26.0966 122.414 25.8091C121.852 25.5216 121.435 25.1382 121.161 24.6589C120.887 24.1797 120.75 23.6594 120.75 23.098C120.75 22.0574 121.147 21.2563 121.941 20.6949C122.735 20.1336 123.817 19.8529 125.186 19.8529H127.939V19.7296C127.939 18.8396 127.706 18.1687 127.24 17.7168C126.775 17.2513 126.152 17.0185 125.371 17.0185C124.7 17.0185 124.118 17.1897 123.626 17.532C123.146 17.8606 122.845 18.3467 122.722 18.9902H120.955C121.024 18.2508 121.27 17.6278 121.695 17.1212C122.133 16.6146 122.674 16.2312 123.317 15.971C123.961 15.6972 124.646 15.5603 125.371 15.5603C126.795 15.5603 127.863 15.9437 128.575 16.7104C129.301 17.4635 129.664 18.4699 129.664 19.7296V25.9939H128.123L128.021 24.166C127.733 24.7411 127.309 25.234 126.747 25.6448C126.2 26.0419 125.46 26.2404 124.529 26.2404ZM124.796 24.7822C125.453 24.7822 126.015 24.611 126.48 24.2687C126.96 23.9264 127.322 23.4814 127.569 22.9337C127.815 22.386 127.939 21.8109 127.939 21.2084V21.1879H125.33C124.317 21.1879 123.598 21.3659 123.174 21.7219C122.763 22.0642 122.557 22.4955 122.557 23.0158C122.557 23.5498 122.749 23.9811 123.133 24.3098C123.53 24.6247 124.084 24.7822 124.796 24.7822Z" fill="#2C2D2C"/>
<path d="M132.252 25.9939V11.2061H133.977V25.9939H132.252Z" fill="#2C2D2C"/>
<path d="M141.385 26.2404C140.413 26.2404 139.55 26.0213 138.797 25.5832C138.044 25.1313 137.449 24.5083 137.011 23.7141C136.586 22.92 136.374 21.982 136.374 20.9003C136.374 19.8323 136.586 18.9012 137.011 18.1071C137.435 17.2992 138.024 16.6762 138.777 16.238C139.544 15.7862 140.427 15.5603 141.426 15.5603C142.412 15.5603 143.261 15.7862 143.973 16.238C144.699 16.6762 145.253 17.2581 145.637 17.9838C146.02 18.7095 146.212 19.49 146.212 20.3253C146.212 20.4759 146.205 20.6265 146.191 20.7771C146.191 20.9277 146.191 21.0989 146.191 21.2906H138.079C138.12 22.071 138.298 22.7214 138.613 23.2418C138.941 23.7484 139.345 24.1318 139.824 24.3919C140.317 24.6521 140.838 24.7822 141.385 24.7822C142.097 24.7822 142.693 24.6178 143.172 24.2892C143.651 23.9606 144.001 23.5156 144.22 22.9542H145.924C145.65 23.899 145.123 24.6863 144.343 25.3162C143.576 25.9323 142.59 26.2404 141.385 26.2404ZM141.385 17.0185C140.564 17.0185 139.831 17.2718 139.188 17.7784C138.558 18.2714 138.195 18.9971 138.099 19.9556H144.507C144.466 19.0382 144.151 18.3193 143.562 17.799C142.974 17.2787 142.248 17.0185 141.385 17.0185Z" fill="#2C2D2C"/>
<path d="M148.499 25.9939V15.8067H150.059L150.162 17.6347C150.491 16.9911 150.963 16.4845 151.579 16.1148C152.196 15.7451 152.894 15.5603 153.674 15.5603C154.879 15.5603 155.838 15.93 156.55 16.6694C157.275 17.3951 157.638 18.5178 157.638 20.0377V25.9939H155.913V20.2226C155.913 18.1002 155.037 17.0391 153.284 17.0391C152.408 17.0391 151.675 17.3608 151.086 18.0044C150.511 18.6342 150.224 19.5379 150.224 20.7155V25.9939H148.499Z" fill="#2C2D2C"/>
<path d="M164.278 25.9939C163.347 25.9939 162.614 25.768 162.08 25.3162C161.546 24.8643 161.279 24.0496 161.279 22.8721V17.265H159.513V15.8067H161.279L161.505 13.3626H163.004V15.8067H166.003V17.265H163.004V22.8721C163.004 23.5156 163.134 23.9538 163.395 24.1865C163.655 24.4056 164.113 24.5152 164.771 24.5152H165.839V25.9939H164.278Z" fill="#2C2D2C"/>
<path d="M172.097 26.2404C170.879 26.2404 169.865 25.9323 169.058 25.3162C168.25 24.7 167.777 23.8648 167.64 22.8104H169.407C169.516 23.3444 169.797 23.81 170.249 24.2071C170.714 24.5905 171.337 24.7822 172.118 24.7822C172.843 24.7822 173.377 24.6315 173.72 24.3303C174.062 24.0154 174.233 23.6457 174.233 23.2212C174.233 22.6051 174.007 22.1943 173.555 21.9889C173.117 21.7835 172.494 21.5987 171.686 21.4343C171.139 21.3248 170.591 21.1673 170.043 20.962C169.496 20.7566 169.037 20.469 168.667 20.0993C168.298 19.7159 168.113 19.2162 168.113 18.6C168.113 17.71 168.441 16.9843 169.099 16.4229C169.77 15.8478 170.673 15.5603 171.81 15.5603C172.891 15.5603 173.775 15.8341 174.459 16.3818C175.158 16.9158 175.561 17.6826 175.671 18.6822H173.966C173.898 18.1618 173.672 17.7579 173.288 17.4704C172.919 17.1691 172.419 17.0185 171.789 17.0185C171.173 17.0185 170.694 17.1486 170.351 17.4088C170.023 17.6689 169.859 18.0112 169.859 18.4357C169.859 18.8465 170.071 19.1682 170.495 19.401C170.933 19.6338 171.522 19.8323 172.262 19.9966C172.891 20.1336 173.487 20.3047 174.048 20.5101C174.624 20.7018 175.089 20.9962 175.445 21.3933C175.815 21.7767 176 22.338 176 23.0774C176.013 23.9948 175.664 24.7548 174.952 25.3572C174.254 25.946 173.302 26.2404 172.097 26.2404Z" fill="#2C2D2C"/>
<path d="M44.8438 25.9939V11.6168H53.737V13.034H46.569V18.0455H53.1209V19.4421H46.569V24.5768H53.737V25.9939H44.8438Z" stroke="#2C2D2C" stroke-width="0.4" mask="url(#path-3-outside-1_505_2795)"/>
<path d="M55.3073 25.9939L58.8399 20.9003L55.3073 15.8067H57.1763L60.0312 20.0172L62.9066 15.8067H64.7551L61.2224 20.9003L64.7551 25.9939H62.9066L60.0312 21.7835L57.1763 25.9939H55.3073Z" stroke="#2C2D2C" stroke-width="0.4" mask="url(#path-3-outside-1_505_2795)"/>
<path d="M66.5635 30.5125V15.8067H68.1244L68.2887 17.4909C68.6173 16.998 69.0829 16.553 69.6853 16.1559C70.3015 15.7588 71.082 15.5603 72.0268 15.5603C73.04 15.5603 73.9232 15.793 74.6763 16.2586C75.4293 16.7241 76.0113 17.3608 76.422 18.1687C76.8465 18.9765 77.0587 19.8939 77.0587 20.9209C77.0587 21.9478 76.8465 22.8652 76.422 23.6731C76.0113 24.4672 75.4225 25.0971 74.6557 25.5626C73.9026 26.0145 73.0195 26.2404 72.0062 26.2404C71.171 26.2404 70.4247 26.0692 69.7675 25.7269C69.124 25.3846 68.631 24.9054 68.2887 24.2892V30.5125H66.5635ZM71.8214 24.7411C72.506 24.7411 73.1085 24.5836 73.6288 24.2687C74.1491 23.9401 74.5599 23.4882 74.8611 22.9131C75.1623 22.338 75.313 21.6671 75.313 20.9003C75.313 20.1336 75.1623 19.4626 74.8611 18.8875C74.5599 18.3125 74.1491 17.8674 73.6288 17.5525C73.1085 17.2239 72.506 17.0596 71.8214 17.0596C71.1367 17.0596 70.5343 17.2239 70.014 17.5525C69.4936 17.8674 69.0829 18.3125 68.7816 18.8875C68.4804 19.4626 68.3298 20.1336 68.3298 20.9003C68.3298 21.6671 68.4804 22.338 68.7816 22.9131C69.0829 23.4882 69.4936 23.9401 70.014 24.2687C70.5343 24.5836 71.1367 24.7411 71.8214 24.7411Z" stroke="#2C2D2C" stroke-width="0.4" mask="url(#path-3-outside-1_505_2795)"/>
<path d="M84.0405 26.2404C83.0683 26.2404 82.2057 26.0213 81.4526 25.5832C80.6995 25.1313 80.1039 24.5083 79.6657 23.7141C79.2413 22.92 79.029 21.982 79.029 20.9003C79.029 19.8323 79.2413 18.9012 79.6657 18.1071C80.0902 17.2992 80.679 16.6762 81.4321 16.238C82.1988 15.7862 83.082 15.5603 84.0816 15.5603C85.0674 15.5603 85.9163 15.7862 86.6284 16.238C87.3541 16.6762 87.9086 17.2581 88.292 17.9838C88.6754 18.7095 88.8671 19.49 88.8671 20.3253C88.8671 20.4759 88.8602 20.6265 88.8465 20.7771C88.8465 20.9277 88.8465 21.0989 88.8465 21.2906H80.7337C80.7748 22.071 80.9528 22.7214 81.2677 23.2418C81.5964 23.7484 82.0003 24.1318 82.4795 24.3919C82.9725 24.6521 83.4928 24.7822 84.0405 24.7822C84.7525 24.7822 85.3481 24.6178 85.8273 24.2892C86.3066 23.9606 86.6557 23.5156 86.8748 22.9542H88.5795C88.3057 23.899 87.7785 24.6863 86.9981 25.3162C86.2313 25.9323 85.2454 26.2404 84.0405 26.2404ZM84.0405 17.0185C83.2189 17.0185 82.4864 17.2718 81.8428 17.7784C81.213 18.2714 80.8501 18.9971 80.7543 19.9556H87.1624C87.1213 19.0382 86.8064 18.3193 86.2176 17.799C85.6288 17.2787 84.9031 17.0185 84.0405 17.0185Z" stroke="#2C2D2C" stroke-width="0.4" mask="url(#path-3-outside-1_505_2795)"/>
<path d="M91.1538 25.9939V15.8067H92.7147L92.8585 17.7579C93.1734 17.087 93.6527 16.553 94.2962 16.1559C94.9397 15.7588 95.7339 15.5603 96.6787 15.5603V17.3677H96.2063C95.6038 17.3677 95.0493 17.4772 94.5427 17.6963C94.036 17.9017 93.6321 18.2577 93.3309 18.7643C93.0296 19.2709 92.879 19.9692 92.879 20.8593V25.9939H91.1538Z" stroke="#2C2D2C" stroke-width="0.4" mask="url(#path-3-outside-1_505_2795)"/>
<path d="M102.641 25.9939C101.71 25.9939 100.977 25.768 100.443 25.3162C99.9091 24.8643 99.642 24.0496 99.642 22.8721V17.265H97.8757V15.8067H99.642L99.868 13.3626H101.367V15.8067H104.366V17.265H101.367V22.8721C101.367 23.5156 101.497 23.9538 101.758 24.1865C102.018 24.4056 102.476 24.5152 103.134 24.5152H104.202V25.9939H102.641Z" stroke="#2C2D2C" stroke-width="0.4" mask="url(#path-3-outside-1_505_2795)"/>
<path d="M114.643 25.9939V13.034H110.35V11.6168H120.661V13.034H116.368V25.9939H114.643Z" stroke="#2C2D2C" stroke-width="0.4" mask="url(#path-3-outside-1_505_2795)"/>
<path d="M124.529 26.2404C123.68 26.2404 122.975 26.0966 122.414 25.8091C121.852 25.5216 121.435 25.1382 121.161 24.6589C120.887 24.1797 120.75 23.6594 120.75 23.098C120.75 22.0574 121.147 21.2563 121.941 20.6949C122.735 20.1336 123.817 19.8529 125.186 19.8529H127.939V19.7296C127.939 18.8396 127.706 18.1687 127.24 17.7168C126.775 17.2513 126.152 17.0185 125.371 17.0185C124.7 17.0185 124.118 17.1897 123.626 17.532C123.146 17.8606 122.845 18.3467 122.722 18.9902H120.955C121.024 18.2508 121.27 17.6278 121.695 17.1212C122.133 16.6146 122.674 16.2312 123.317 15.971C123.961 15.6972 124.646 15.5603 125.371 15.5603C126.795 15.5603 127.863 15.9437 128.575 16.7104C129.301 17.4635 129.664 18.4699 129.664 19.7296V25.9939H128.123L128.021 24.166C127.733 24.7411 127.309 25.234 126.747 25.6448C126.2 26.0419 125.46 26.2404 124.529 26.2404ZM124.796 24.7822C125.453 24.7822 126.015 24.611 126.48 24.2687C126.96 23.9264 127.322 23.4814 127.569 22.9337C127.815 22.386 127.939 21.8109 127.939 21.2084V21.1879H125.33C124.317 21.1879 123.598 21.3659 123.174 21.7219C122.763 22.0642 122.557 22.4955 122.557 23.0158C122.557 23.5498 122.749 23.9811 123.133 24.3098C123.53 24.6247 124.084 24.7822 124.796 24.7822Z" stroke="#2C2D2C" stroke-width="0.4" mask="url(#path-3-outside-1_505_2795)"/>
<path d="M132.252 25.9939V11.2061H133.977V25.9939H132.252Z" stroke="#2C2D2C" stroke-width="0.4" mask="url(#path-3-outside-1_505_2795)"/>
<path d="M141.385 26.2404C140.413 26.2404 139.55 26.0213 138.797 25.5832C138.044 25.1313 137.449 24.5083 137.011 23.7141C136.586 22.92 136.374 21.982 136.374 20.9003C136.374 19.8323 136.586 18.9012 137.011 18.1071C137.435 17.2992 138.024 16.6762 138.777 16.238C139.544 15.7862 140.427 15.5603 141.426 15.5603C142.412 15.5603 143.261 15.7862 143.973 16.238C144.699 16.6762 145.253 17.2581 145.637 17.9838C146.02 18.7095 146.212 19.49 146.212 20.3253C146.212 20.4759 146.205 20.6265 146.191 20.7771C146.191 20.9277 146.191 21.0989 146.191 21.2906H138.079C138.12 22.071 138.298 22.7214 138.613 23.2418C138.941 23.7484 139.345 24.1318 139.824 24.3919C140.317 24.6521 140.838 24.7822 141.385 24.7822C142.097 24.7822 142.693 24.6178 143.172 24.2892C143.651 23.9606 144.001 23.5156 144.22 22.9542H145.924C145.65 23.899 145.123 24.6863 144.343 25.3162C143.576 25.9323 142.59 26.2404 141.385 26.2404ZM141.385 17.0185C140.564 17.0185 139.831 17.2718 139.188 17.7784C138.558 18.2714 138.195 18.9971 138.099 19.9556H144.507C144.466 19.0382 144.151 18.3193 143.562 17.799C142.974 17.2787 142.248 17.0185 141.385 17.0185Z" stroke="#2C2D2C" stroke-width="0.4" mask="url(#path-3-outside-1_505_2795)"/>
<path d="M148.499 25.9939V15.8067H150.059L150.162 17.6347C150.491 16.9911 150.963 16.4845 151.579 16.1148C152.196 15.7451 152.894 15.5603 153.674 15.5603C154.879 15.5603 155.838 15.93 156.55 16.6694C157.275 17.3951 157.638 18.5178 157.638 20.0377V25.9939H155.913V20.2226C155.913 18.1002 155.037 17.0391 153.284 17.0391C152.408 17.0391 151.675 17.3608 151.086 18.0044C150.511 18.6342 150.224 19.5379 150.224 20.7155V25.9939H148.499Z" stroke="#2C2D2C" stroke-width="0.4" mask="url(#path-3-outside-1_505_2795)"/>
<path d="M164.278 25.9939C163.347 25.9939 162.614 25.768 162.08 25.3162C161.546 24.8643 161.279 24.0496 161.279 22.8721V17.265H159.513V15.8067H161.279L161.505 13.3626H163.004V15.8067H166.003V17.265H163.004V22.8721C163.004 23.5156 163.134 23.9538 163.395 24.1865C163.655 24.4056 164.113 24.5152 164.771 24.5152H165.839V25.9939H164.278Z" stroke="#2C2D2C" stroke-width="0.4" mask="url(#path-3-outside-1_505_2795)"/>
<path d="M172.097 26.2404C170.879 26.2404 169.865 25.9323 169.058 25.3162C168.25 24.7 167.777 23.8648 167.64 22.8104H169.407C169.516 23.3444 169.797 23.81 170.249 24.2071C170.714 24.5905 171.337 24.7822 172.118 24.7822C172.843 24.7822 173.377 24.6315 173.72 24.3303C174.062 24.0154 174.233 23.6457 174.233 23.2212C174.233 22.6051 174.007 22.1943 173.555 21.9889C173.117 21.7835 172.494 21.5987 171.686 21.4343C171.139 21.3248 170.591 21.1673 170.043 20.962C169.496 20.7566 169.037 20.469 168.667 20.0993C168.298 19.7159 168.113 19.2162 168.113 18.6C168.113 17.71 168.441 16.9843 169.099 16.4229C169.77 15.8478 170.673 15.5603 171.81 15.5603C172.891 15.5603 173.775 15.8341 174.459 16.3818C175.158 16.9158 175.561 17.6826 175.671 18.6822H173.966C173.898 18.1618 173.672 17.7579 173.288 17.4704C172.919 17.1691 172.419 17.0185 171.789 17.0185C171.173 17.0185 170.694 17.1486 170.351 17.4088C170.023 17.6689 169.859 18.0112 169.859 18.4357C169.859 18.8465 170.071 19.1682 170.495 19.401C170.933 19.6338 171.522 19.8323 172.262 19.9966C172.891 20.1336 173.487 20.3047 174.048 20.5101C174.624 20.7018 175.089 20.9962 175.445 21.3933C175.815 21.7767 176 22.338 176 23.0774C176.013 23.9948 175.664 24.7548 174.952 25.3572C174.254 25.946 173.302 26.2404 172.097 26.2404Z" stroke="#2C2D2C" stroke-width="0.4" mask="url(#path-3-outside-1_505_2795)"/>
<defs>
<linearGradient id="paint0_linear_505_2795" x1="16.9807" y1="-2.22625" x2="17.1355" y2="33.535" gradientUnits="userSpaceOnUse">
<stop stop-color="#53D03E"/>
<stop offset="1" stop-color="#00D998"/>
</linearGradient>
<linearGradient id="paint1_linear_505_2795" x1="16.9807" y1="-2.22625" x2="17.1355" y2="33.535" gradientUnits="userSpaceOnUse">
<stop stop-color="#53D03E"/>
<stop offset="1" stop-color="#00D998"/>
</linearGradient>
</defs>
</svg>
